<svg width="13" height="16" viewBox="0 0 13 16" fill="none" xmlns="http://www.w3.org/2000/svg">
<path d="M3.16667 7.99935C3.16667 7.63116 3.46514 7.33268 3.83333 7.33268H9.16667C9.53486 7.33268 9.83333 7.63116 9.83333 7.99935C9.83333 8.36754 9.53486 8.66602 9.16667 8.66602H3.83333C3.46514 8.66602 3.16667 8.36754 3.16667 7.99935Z" fill="#0357EE"/>
<path d="M3.83333 10.666C3.46514 10.666 3.16667 10.9645 3.16667 11.3327C3.16667 11.7009 3.46514 11.9993 3.83333 11.9993H9.16667C9.53486 11.9993 9.83333 11.7009 9.83333 11.3327C9.83333 10.9645 9.53486 10.666 9.16667 10.666H3.83333Z" fill="#0357EE"/>
<path fill-rule="evenodd" clip-rule="evenodd" d="M3.16667 0.666016C1.69391 0.666016 0.5 1.85992 0.5 3.33268V12.666C0.5 14.1388 1.69391 15.3327 3.16667 15.3327H9.83333C11.3061 15.3327 12.5 14.1388 12.5 12.666V6.05678C12.5 5.43295 12.2813 4.82886 11.8819 4.34962L9.61184 1.62552C9.10519 1.01754 8.35466 0.666016 7.56325 0.666016H3.16667ZM1.83333 3.33268C1.83333 2.5963 2.43029 1.99935 3.16667 1.99935H7.16667V3.99935C7.16667 5.47211 8.36057 6.66602 9.83333 6.66602H11.1667V12.666C11.1667 13.4024 10.5697 13.9993 9.83333 13.9993H3.16667C2.43029 13.9993 1.83333 13.4024 1.83333 12.666V3.33268ZM10.9529 5.33268C10.9239 5.28784 10.8921 5.24459 10.8576 5.2032L8.58755 2.4791C8.55978 2.44579 8.53056 2.41401 8.5 2.38384V3.99935C8.5 4.73573 9.09695 5.33268 9.83333 5.33268H10.9529Z" fill="#0357EE"/>
</svg>
