<svg width="17" height="16" viewBox="0 0 17 16" fill="none" xmlns="http://www.w3.org/2000/svg">
<path d="M5.16667 7.99935C5.16667 7.63116 5.46514 7.33268 5.83333 7.33268H11.1667C11.5349 7.33268 11.8333 7.63116 11.8333 7.99935C11.8333 8.36754 11.5349 8.66602 11.1667 8.66602H5.83333C5.46514 8.66602 5.16667 8.36754 5.16667 7.99935Z" fill="#00AC6C"/>
<path d="M5.83333 10.666C5.46514 10.666 5.16667 10.9645 5.16667 11.3327C5.16667 11.7009 5.46514 11.9993 5.83333 11.9993H11.1667C11.5349 11.9993 11.8333 11.7009 11.8333 11.3327C11.8333 10.9645 11.5349 10.666 11.1667 10.666H5.83333Z" fill="#00AC6C"/>
<path fill-rule="evenodd" clip-rule="evenodd" d="M5.16667 0.666016C3.69391 0.666016 2.5 1.85992 2.5 3.33268V12.666C2.5 14.1388 3.69391 15.3327 5.16667 15.3327H11.8333C13.3061 15.3327 14.5 14.1388 14.5 12.666V6.05678C14.5 5.43295 14.2813 4.82886 13.8819 4.34962L11.6118 1.62552C11.1052 1.01754 10.3547 0.666016 9.56325 0.666016H5.16667ZM3.83333 3.33268C3.83333 2.5963 4.43029 1.99935 5.16667 1.99935H9.16667V3.99935C9.16667 5.47211 10.3606 6.66602 11.8333 6.66602H13.1667V12.666C13.1667 13.4024 12.5697 13.9993 11.8333 13.9993H5.16667C4.43029 13.9993 3.83333 13.4024 3.83333 12.666V3.33268ZM12.9529 5.33268C12.9239 5.28784 12.8921 5.24459 12.8576 5.2032L10.5875 2.4791C10.5598 2.44579 10.5306 2.41401 10.5 2.38384V3.99935C10.5 4.73573 11.097 5.33268 11.8333 5.33268H12.9529Z" fill="#00AC6C"/>
</svg>
