<svg width="17" height="17" viewBox="0 0 17 17" fill="none" xmlns="http://www.w3.org/2000/svg">
<path d="M13.34 13.6007C13.0667 13.6007 12.84 13.374 12.84 13.1007V5.23398C12.84 4.56065 12.7 4.33398 11.8533 4.33398H11.16C10.3133 4.33398 10.1733 4.56065 10.1733 5.23398V13.1007C10.1733 13.374 9.94667 13.6007 9.67334 13.6007C9.40001 13.6007 9.17334 13.374 9.17334 13.1007V5.23398C9.17334 3.95398 9.82667 3.33398 11.16 3.33398H11.8533C13.1933 3.33398 13.84 3.95398 13.84 5.23398V13.1007C13.84 13.374 13.6133 13.6007 13.34 13.6007Z" fill="#FF4037"/>
<path d="M7.6735 13.5993C7.40017 13.5993 7.1735 13.3727 7.1735 13.0993V8.56602C7.1735 7.89268 7.0335 7.66602 6.18684 7.66602H5.4935C4.64684 7.66602 4.50684 7.89268 4.50684 8.56602V13.0993C4.50684 13.3727 4.28017 13.5993 4.00684 13.5993C3.7335 13.5993 3.50684 13.3727 3.50684 13.0993V8.56602C3.50684 7.28602 4.16017 6.66602 5.4935 6.66602H6.18684C7.52684 6.66602 8.1735 7.28602 8.1735 8.56602V13.0993C8.1735 13.3727 7.94684 13.5993 7.6735 13.5993Z" fill="#FF4037"/>
<path d="M15.1668 13.666H1.8335C1.56016 13.666 1.3335 13.4393 1.3335 13.166C1.3335 12.8927 1.5535 12.666 1.8335 12.666H15.1668C15.4402 12.666 15.6668 12.8927 15.6668 13.166C15.6668 13.4393 15.4468 13.666 15.1668 13.666Z" fill="#FF4037"/>
</svg>
