<svg width="17" height="16" viewBox="0 0 17 16" fill="none" xmlns="http://www.w3.org/2000/svg">
<path d="M10.6665 7.33308C11.0347 7.33308 11.3332 7.0346 11.3332 6.66641C11.3332 6.29822 11.0347 5.99974 10.6665 5.99974H9.99984C9.63165 5.99974 9.33317 6.29822 9.33317 6.66641C9.33317 7.0346 9.63165 7.33308 9.99984 7.33308H10.6665Z" fill="#C1A337"/>
<path d="M7.99984 8.66641C7.99984 9.0346 7.70136 9.33308 7.33317 9.33308H6.6665C6.29831 9.33308 5.99984 9.0346 5.99984 8.66641C5.99984 8.29822 6.29831 7.99974 6.6665 7.99974H7.33317C7.70136 7.99974 7.99984 8.29822 7.99984 8.66641Z" fill="#C1A337"/>
<path d="M7.33317 7.33308C7.70136 7.33308 7.99984 7.0346 7.99984 6.66641C7.99984 6.29822 7.70136 5.99974 7.33317 5.99974H6.6665C6.29831 5.99974 5.99984 6.29822 5.99984 6.66641C5.99984 7.0346 6.29831 7.33308 6.6665 7.33308H7.33317Z" fill="#C1A337"/>
<path d="M11.3332 8.66641C11.3332 9.0346 11.0347 9.33308 10.6665 9.33308H9.99984C9.63165 9.33308 9.33317 9.0346 9.33317 8.66641C9.33317 8.29822 9.63165 7.99974 9.99984 7.99974H10.6665C11.0347 7.99974 11.3332 8.29822 11.3332 8.66641Z" fill="#C1A337"/>
<path d="M7.33317 11.3331C7.70136 11.3331 7.99984 11.0346 7.99984 10.6664C7.99984 10.2982 7.70136 9.99974 7.33317 9.99974H6.6665C6.29831 9.99974 5.99984 10.2982 5.99984 10.6664C5.99984 11.0346 6.29831 11.3331 6.6665 11.3331H7.33317Z" fill="#C1A337"/>
<path d="M11.3332 10.6664C11.3332 11.0346 11.0347 11.3331 10.6665 11.3331H9.99984C9.63165 11.3331 9.33317 11.0346 9.33317 10.6664C9.33317 10.2982 9.63165 9.99974 9.99984 9.99974H10.6665C11.0347 9.99974 11.3332 10.2982 11.3332 10.6664Z" fill="#C1A337"/>
<path fill-rule="evenodd" clip-rule="evenodd" d="M9.32802 2.94325C8.91811 2.70902 8.4149 2.70902 8.00499 2.94325L4.00499 5.22897C3.58955 5.46636 3.33317 5.90815 3.33317 6.38663V12.6664H2.33317C1.96498 12.6664 1.6665 12.9649 1.6665 13.3331C1.6665 13.7013 1.96498 13.9997 2.33317 13.9997H14.9998C15.368 13.9997 15.6665 13.7013 15.6665 13.3331C15.6665 12.9649 15.368 12.6664 14.9998 12.6664H13.9998V6.38663C13.9998 5.90815 13.7435 5.46636 13.328 5.22897L9.32802 2.94325ZM9.33317 12.6664V11.9997C9.33317 11.6316 9.03469 11.3331 8.6665 11.3331C8.29831 11.3331 7.99984 11.6316 7.99984 11.9997V12.6664H4.6665V6.38663L8.6665 4.10091L12.6665 6.38663V12.6664H9.33317Z" fill="#C1A337"/>
</svg>
