<svg width="15" height="16" viewBox="0 0 15 16" fill="none" xmlns="http://www.w3.org/2000/svg">
<path fill-rule="evenodd" clip-rule="evenodd" d="M13.1539 5.32446C12.8753 4.21738 11.9134 3.42871 10.7966 3.34085C10.7404 3.16398 10.6759 2.98899 10.6022 2.8183C10.3622 2.26292 10.0107 1.72156 9.49274 1.31748C8.96514 0.905849 8.30169 0.666016 7.50017 0.666016C6.69864 0.666016 6.0352 0.905849 5.50759 1.31748C4.98965 1.72156 4.63809 2.26292 4.39817 2.8183C4.32443 2.98898 4.25997 3.16398 4.20368 3.34085C3.08692 3.4287 2.12505 4.21737 1.8464 5.32446C1.18177 7.96505 0.856173 9.90817 0.834642 11.3341C0.813266 12.7496 1.08959 13.7908 1.785 14.4648C2.47125 15.1299 3.41877 15.2891 4.34515 15.3243C4.8198 15.3423 5.33186 15.3282 5.85431 15.3108L6.04583 15.3044C6.51496 15.2884 6.99739 15.2721 7.50016 15.2721C8.00293 15.2721 8.48524 15.2884 8.95437 15.3044L9.14602 15.3108C9.66847 15.3282 10.1805 15.3423 10.6552 15.3243C11.5815 15.289 12.5291 15.1299 13.2153 14.4648C13.9107 13.7908 14.1871 12.7496 14.1657 11.3341C14.1441 9.90816 13.8185 7.96505 13.1539 5.32446ZM5.16683 5.99935C5.16683 5.61391 5.19063 5.14553 5.26397 4.66602H9.73636C9.8097 5.14553 9.83349 5.61391 9.83349 5.99935C9.83349 6.36754 10.132 6.66602 10.5002 6.66602C10.8683 6.66602 11.1668 6.36754 11.1668 5.99935C11.1668 5.6563 11.1505 5.22932 11.0955 4.7676C11.4683 4.92323 11.7591 5.24556 11.8609 5.64991C12.5184 8.26232 12.8133 10.0855 12.8325 11.3542C12.8518 12.6332 12.589 13.215 12.2874 13.5073C11.9766 13.8085 11.4692 13.959 10.6045 13.9919C10.1836 14.0079 9.71618 13.9957 9.19033 13.9782L9.00071 13.9718C8.5333 13.9559 8.02717 13.9387 7.50016 13.9387C6.97311 13.9387 6.46705 13.9559 5.9996 13.9718L5.81 13.9782C5.28414 13.9957 4.81667 14.0079 4.39581 13.9919C3.53116 13.959 3.02372 13.8085 2.71293 13.5073C2.4113 13.215 2.14851 12.6332 2.16782 11.3542C2.18698 10.0855 2.48187 8.26232 3.13941 5.64991C3.24118 5.24556 3.53203 4.92322 3.90478 4.7676C3.84981 5.22932 3.83349 5.65629 3.83349 5.99934C3.83349 6.36753 4.13197 6.66601 4.50016 6.66602C4.86835 6.66602 5.16682 6.36754 5.16683 5.99935ZM8.67258 2.36872C8.96128 2.59395 9.19269 2.92255 9.37191 3.33268H5.62842C5.80764 2.92255 6.03906 2.59395 6.32775 2.36872C6.61014 2.1484 6.9817 1.99935 7.50017 1.99935C8.01864 1.99935 8.39019 2.1484 8.67258 2.36872Z" fill="#5C33FF"/>
</svg>
