<svg width="15" height="12" viewBox="0 0 15 12" fill="none" xmlns="http://www.w3.org/2000/svg">
<path d="M9.6665 5.33308C10.0347 5.33308 10.3332 5.0346 10.3332 4.66641C10.3332 4.29822 10.0347 3.99974 9.6665 3.99974H8.99984C8.63165 3.99974 8.33317 4.29822 8.33317 4.66641C8.33317 5.0346 8.63165 5.33308 8.99984 5.33308H9.6665Z" fill="#C1A337"/>
<path d="M6.99984 6.66641C6.99984 7.0346 6.70136 7.33308 6.33317 7.33308H5.6665C5.29831 7.33308 4.99984 7.0346 4.99984 6.66641C4.99984 6.29822 5.29831 5.99974 5.6665 5.99974H6.33317C6.70136 5.99974 6.99984 6.29822 6.99984 6.66641Z" fill="#C1A337"/>
<path d="M6.33317 5.33308C6.70136 5.33308 6.99984 5.0346 6.99984 4.66641C6.99984 4.29822 6.70136 3.99974 6.33317 3.99974H5.6665C5.29831 3.99974 4.99984 4.29822 4.99984 4.66641C4.99984 5.0346 5.29831 5.33308 5.6665 5.33308H6.33317Z" fill="#C1A337"/>
<path d="M10.3332 6.66641C10.3332 7.0346 10.0347 7.33308 9.6665 7.33308H8.99984C8.63165 7.33308 8.33317 7.0346 8.33317 6.66641C8.33317 6.29822 8.63165 5.99974 8.99984 5.99974H9.6665C10.0347 5.99974 10.3332 6.29822 10.3332 6.66641Z" fill="#C1A337"/>
<path d="M6.33317 9.33308C6.70136 9.33308 6.99984 9.0346 6.99984 8.66641C6.99984 8.29822 6.70136 7.99974 6.33317 7.99974H5.6665C5.29831 7.99974 4.99984 8.29822 4.99984 8.66641C4.99984 9.0346 5.29831 9.33308 5.6665 9.33308H6.33317Z" fill="#C1A337"/>
<path d="M10.3332 8.66641C10.3332 9.0346 10.0347 9.33308 9.6665 9.33308H8.99984C8.63165 9.33308 8.33317 9.0346 8.33317 8.66641C8.33317 8.29822 8.63165 7.99974 8.99984 7.99974H9.6665C10.0347 7.99974 10.3332 8.29822 10.3332 8.66641Z" fill="#C1A337"/>
<path fill-rule="evenodd" clip-rule="evenodd" d="M8.32802 0.943254C7.91811 0.70902 7.4149 0.709019 7.00499 0.943254L3.00499 3.22897C2.58955 3.46636 2.33317 3.90815 2.33317 4.38663V10.6664H1.33317C0.964981 10.6664 0.666504 10.9649 0.666504 11.3331C0.666504 11.7013 0.964981 11.9997 1.33317 11.9997H13.9998C14.368 11.9997 14.6665 11.7013 14.6665 11.3331C14.6665 10.9649 14.368 10.6664 13.9998 10.6664H12.9998V4.38663C12.9998 3.90815 12.7435 3.46636 12.328 3.22897L8.32802 0.943254ZM8.33317 10.6664V9.99974C8.33317 9.63156 8.03469 9.33308 7.6665 9.33308C7.29831 9.33308 6.99984 9.63156 6.99984 9.99974V10.6664H3.6665V4.38663L7.6665 2.10091L11.6665 4.38663V10.6664H8.33317Z" fill="#C1A337"/>
</svg>
