<svg width="13" height="16" viewBox="0 0 13 16" fill="none" xmlns="http://www.w3.org/2000/svg">
<path d="M3.16667 8.00033C3.16667 7.63213 3.46514 7.33366 3.83333 7.33366H9.16667C9.53486 7.33366 9.83333 7.63213 9.83333 8.00033C9.83333 8.36852 9.53486 8.66699 9.16667 8.66699H3.83333C3.46514 8.66699 3.16667 8.36852 3.16667 8.00033Z" fill="#00AC6C"/>
<path d="M3.83333 10.667C3.46514 10.667 3.16667 10.9655 3.16667 11.3337C3.16667 11.7018 3.46514 12.0003 3.83333 12.0003H9.16667C9.53486 12.0003 9.83333 11.7018 9.83333 11.3337C9.83333 10.9655 9.53486 10.667 9.16667 10.667H3.83333Z" fill="#00AC6C"/>
<path fill-rule="evenodd" clip-rule="evenodd" d="M3.16667 0.666992C1.69391 0.666992 0.5 1.8609 0.5 3.33366V12.667C0.5 14.1398 1.69391 15.3337 3.16667 15.3337H9.83333C11.3061 15.3337 12.5 14.1398 12.5 12.667V6.05776C12.5 5.43393 12.2813 4.82984 11.8819 4.3506L9.61184 1.6265C9.10519 1.01852 8.35466 0.666992 7.56325 0.666992H3.16667ZM1.83333 3.33366C1.83333 2.59728 2.43029 2.00033 3.16667 2.00033H7.16667V4.00033C7.16667 5.47308 8.36057 6.66699 9.83333 6.66699H11.1667V12.667C11.1667 13.4034 10.5697 14.0003 9.83333 14.0003H3.16667C2.43029 14.0003 1.83333 13.4034 1.83333 12.667V3.33366ZM10.9529 5.33366C10.9239 5.28882 10.8921 5.24557 10.8576 5.20418L8.58755 2.48008C8.55978 2.44677 8.53056 2.41499 8.5 2.38482V4.00033C8.5 4.7367 9.09695 5.33366 9.83333 5.33366H10.9529Z" fill="#00AC6C"/>
</svg>
