<svg width="17" height="16" viewBox="0 0 17 16" fill="none" xmlns="http://www.w3.org/2000/svg">
<path d="M13.3405 13.0997C13.0672 13.0997 12.8405 12.873 12.8405 12.5997V4.73301C12.8405 4.05967 12.7005 3.83301 11.8538 3.83301H11.1605C10.3138 3.83301 10.1738 4.05967 10.1738 4.73301V12.5997C10.1738 12.873 9.94716 13.0997 9.67383 13.0997C9.40049 13.0997 9.17383 12.873 9.17383 12.5997V4.73301C9.17383 3.45301 9.82716 2.83301 11.1605 2.83301H11.8538C13.1938 2.83301 13.8405 3.45301 13.8405 4.73301V12.5997C13.8405 12.873 13.6138 13.0997 13.3405 13.0997Z" fill="#FF4037"/>
<path d="M7.67253 13.1003C7.39919 13.1003 7.17253 12.8737 7.17253 12.6003V8.06699C7.17253 7.39366 7.03253 7.16699 6.18586 7.16699H5.49253C4.64586 7.16699 4.50586 7.39366 4.50586 8.06699V12.6003C4.50586 12.8737 4.27919 13.1003 4.00586 13.1003C3.73253 13.1003 3.50586 12.8737 3.50586 12.6003V8.06699C3.50586 6.78699 4.15919 6.16699 5.49253 6.16699H6.18586C7.52586 6.16699 8.17253 6.78699 8.17253 8.06699V12.6003C8.17253 12.8737 7.94586 13.1003 7.67253 13.1003Z" fill="#FF4037"/>
<path d="M15.1673 13.167H1.83398C1.56065 13.167 1.33398 12.9403 1.33398 12.667C1.33398 12.3937 1.55398 12.167 1.83398 12.167H15.1673C15.4407 12.167 15.6673 12.3937 15.6673 12.667C15.6673 12.9403 15.4473 13.167 15.1673 13.167Z" fill="#FF4037"/>
</svg>
