<svg width="16" height="16" viewBox="0 0 16 16" fill="none" xmlns="http://www.w3.org/2000/svg">
<path d="M10 7.33308C10.3682 7.33308 10.6667 7.0346 10.6667 6.66641C10.6667 6.29822 10.3682 5.99974 10 5.99974H9.33333C8.96514 5.99974 8.66667 6.29822 8.66667 6.66641C8.66667 7.0346 8.96514 7.33308 9.33333 7.33308H10Z" fill="#C1A337"/>
<path d="M7.33333 8.66641C7.33333 9.0346 7.03486 9.33308 6.66667 9.33308H6C5.63181 9.33308 5.33333 9.0346 5.33333 8.66641C5.33333 8.29822 5.63181 7.99974 6 7.99974H6.66667C7.03486 7.99974 7.33333 8.29822 7.33333 8.66641Z" fill="#C1A337"/>
<path d="M6.66667 7.33308C7.03486 7.33308 7.33333 7.0346 7.33333 6.66641C7.33333 6.29822 7.03486 5.99974 6.66667 5.99974H6C5.63181 5.99974 5.33333 6.29822 5.33333 6.66641C5.33333 7.0346 5.63181 7.33308 6 7.33308H6.66667Z" fill="#C1A337"/>
<path d="M10.6667 8.66641C10.6667 9.0346 10.3682 9.33308 10 9.33308H9.33333C8.96514 9.33308 8.66667 9.0346 8.66667 8.66641C8.66667 8.29822 8.96514 7.99974 9.33333 7.99974H10C10.3682 7.99974 10.6667 8.29822 10.6667 8.66641Z" fill="#C1A337"/>
<path d="M6.66667 11.3331C7.03486 11.3331 7.33333 11.0346 7.33333 10.6664C7.33333 10.2982 7.03486 9.99974 6.66667 9.99974H6C5.63181 9.99974 5.33333 10.2982 5.33333 10.6664C5.33333 11.0346 5.63181 11.3331 6 11.3331H6.66667Z" fill="#C1A337"/>
<path d="M10.6667 10.6664C10.6667 11.0346 10.3682 11.3331 10 11.3331H9.33333C8.96514 11.3331 8.66667 11.0346 8.66667 10.6664C8.66667 10.2982 8.96514 9.99974 9.33333 9.99974H10C10.3682 9.99974 10.6667 10.2982 10.6667 10.6664Z" fill="#C1A337"/>
<path fill-rule="evenodd" clip-rule="evenodd" d="M8.66152 2.94325C8.25161 2.70902 7.74839 2.70902 7.33848 2.94325L3.33848 5.22897C2.92305 5.46636 2.66667 5.90815 2.66667 6.38663V12.6664H1.66667C1.29848 12.6664 1 12.9649 1 13.3331C1 13.7013 1.29848 13.9997 1.66667 13.9997H14.3333C14.7015 13.9997 15 13.7013 15 13.3331C15 12.9649 14.7015 12.6664 14.3333 12.6664H13.3333V6.38663C13.3333 5.90815 13.077 5.46636 12.6615 5.22897L8.66152 2.94325ZM8.66667 12.6664V11.9997C8.66667 11.6316 8.36819 11.3331 8 11.3331C7.63181 11.3331 7.33333 11.6316 7.33333 11.9997V12.6664H4V6.38663L8 4.10091L12 6.38663V12.6664H8.66667Z" fill="#C1A337"/>
</svg>
